<svg width="512" height="512" viewBox="0 0 512 512" fill="none" xmlns="http://www.w3.org/2000/svg">
  <defs>
    <radialGradient id="bgGlow" cx="50%" cy="45%" r="70%">
      <stop offset="0%" stop-color="#12345a"/>
      <stop offset="55%" stop-color="#07162c"/>
      <stop offset="100%" stop-color="#020814"/>
    </radialGradient>
    <linearGradient id="edge" x1="80" y1="48" x2="440" y2="464" gradientUnits="userSpaceOnUse">
      <stop stop-color="#1f7ef2" stop-opacity="0.55"/>
      <stop offset="1" stop-color="#0a1b3b" stop-opacity="0.9"/>
    </linearGradient>
    <linearGradient id="cyan" x1="78" y1="132" x2="440" y2="392" gradientUnits="userSpaceOnUse">
      <stop stop-color="#9ffcff"/>
      <stop offset="0.45" stop-color="#27e6ff"/>
      <stop offset="1" stop-color="#9dffff"/>
    </linearGradient>
    <filter id="softGlow" x="-35%" y="-35%" width="170%" height="170%" color-interpolation-filters="sRGB">
      <feGaussianBlur stdDeviation="7" result="blur"/>
      <feColorMatrix in="blur" type="matrix" values="0 0 0 0 0.08 0 0 0 0 0.85 0 0 0 0 1 0 0 0 0.95 0" result="glow"/>
      <feMerge>
        <feMergeNode in="glow"/>
        <feMergeNode in="SourceGraphic"/>
      </feMerge>
    </filter>
    <filter id="deepShadow" x="-20%" y="-20%" width="140%" height="140%">
      <feDropShadow dx="0" dy="18" stdDeviation="18" flood-color="#00d9ff" flood-opacity="0.16"/>
    </filter>
  </defs>

  <rect x="34" y="34" width="444" height="444" rx="96" fill="url(#bgGlow)"/>
  <rect x="34" y="34" width="444" height="444" rx="96" stroke="url(#edge)" stroke-width="6"/>
  <circle cx="266" cy="262" r="178" fill="#00d9ff" opacity="0.045"/>

  <g filter="url(#deepShadow)">
    <path d="M94 319C132 262 218 222 316 215C407 209 458 237 438 287C416 341 306 378 190 364C107 354 61 343 94 319Z" stroke="#00c8ff" stroke-width="8" opacity="0.45"/>
    <path d="M252 172C309 138 383 132 422 160C466 193 450 263 382 315" stroke="#27e6ff" stroke-width="8" opacity="0.42"/>
    <circle cx="418" cy="159" r="16" fill="#8fffff" filter="url(#softGlow)"/>
  </g>

  <g filter="url(#softGlow)" stroke="url(#cyan)" stroke-linecap="round" stroke-linejoin="round">
    <path d="M108 164H160C170 164 178 171 181 181L198 238" stroke-width="20"/>
    <path d="M198 238H388C399 238 407 248 404 259L386 326H210" stroke-width="20"/>
    <path d="M198 238L220 316C224 329 214 342 200 342H358" stroke-width="20"/>
    <path d="M210 366H354" stroke-width="14"/>
    <circle cx="207" cy="389" r="28" stroke-width="16"/>
    <circle cx="342" cy="389" r="28" stroke-width="16"/>
    <path d="M282 276L309 303L365 245" stroke-width="18"/>
    <path d="M252 280C259 249 291 232 322 241" stroke-width="12" opacity="0.85"/>
  </g>
</svg>
